<svg xmlns="http://www.w3.org/2000/svg" viewBox="0 0 512 512" width="512" height="512">
  <rect width="512" height="512" rx="96" fill="#0d0f14"/>
  <rect x="48" y="48" width="416" height="416" rx="72" fill="#6c63ff"/>
  <g fill="#ffffff">
    <!-- open book -->
    <path d="M256 168c-34-24-78-32-118-26-12 2-22 12-22 25v152c0 9 8 15 17 14 36-6 76 1 107 22 1 1 2 1 3 1V168z" opacity="0.95"/>
    <path d="M256 168c34-24 78-32 118-26 12 2 22 12 22 25v152c0 9-8 15-17 14-36-6-76 1-107 22-1 1-2 1-3 1V168z" opacity="0.78"/>
    <rect x="250" y="160" width="12" height="200" rx="6"/>
  </g>
</svg>
